<svg id="visual" viewBox="0 0 900 600" width="900" height="600" xmlns="http://www.w3.org/2000/svg" xmlns:xlink="http://www.w3.org/1999/xlink" version="1.1"><rect x="0" y="0" width="900" height="600" fill="#001220"></rect><path d="M0 446L21.5 451.3C43 456.7 86 467.3 128.8 472C171.7 476.7 214.3 475.3 257.2 462.7C300 450 343 426 385.8 427.5C428.7 429 471.3 456 514.2 464C557 472 600 461 642.8 447.3C685.7 433.7 728.3 417.3 771.2 409.2C814 401 857 401 878.5 401L900 401L900 601L878.5 601C857 601 814 601 771.2 601C728.3 601 685.7 601 642.8 601C600 601 557 601 514.2 601C471.3 601 428.7 601 385.8 601C343 601 300 601 257.2 601C214.3 601 171.7 601 128.8 601C86 601 43 601 21.5 601L0 601Z" fill="#fa7268"></path><path d="M0 478L21.5 477.2C43 476.3 86 474.7 128.8 479C171.7 483.3 214.3 493.7 257.2 498.3C300 503 343 502 385.8 492.7C428.7 483.3 471.3 465.7 514.2 455.3C557 445 600 442 642.8 450.7C685.7 459.3 728.3 479.7 771.2 484C814 488.3 857 476.7 878.5 470.8L900 465L900 601L878.5 601C857 601 814 601 771.2 601C728.3 601 685.7 601 642.8 601C600 601 557 601 514.2 601C471.3 601 428.7 601 385.8 601C343 601 300 601 257.2 601C214.3 601 171.7 601 128.8 601C86 601 43 601 21.5 601L0 601Z" fill="#ef5f67"></path><path d="M0 491L21.5 495.2C43 499.3 86 507.7 128.8 504.8C171.7 502 214.3 488 257.2 488.3C300 488.7 343 503.3 385.8 506.2C428.7 509 471.3 500 514.2 495.3C557 490.7 600 490.3 642.8 494.3C685.7 498.3 728.3 506.7 771.2 503.8C814 501 857 487 878.5 480L900 473L900 601L878.5 601C857 601 814 601 771.2 601C728.3 601 685.7 601 642.8 601C600 601 557 601 514.2 601C471.3 601 428.7 601 385.8 601C343 601 300 601 257.2 601C214.3 601 171.7 601 128.8 601C86 601 43 601 21.5 601L0 601Z" fill="#e34c67"></path><path d="M0 512L21.5 519C43 526 86 540 128.8 542.2C171.7 544.3 214.3 534.7 257.2 529.8C300 525 343 525 385.8 520.7C428.7 516.3 471.3 507.7 514.2 507.8C557 508 600 517 642.8 518.8C685.7 520.7 728.3 515.3 771.2 512.2C814 509 857 508 878.5 507.5L900 507L900 601L878.5 601C857 601 814 601 771.2 601C728.3 601 685.7 601 642.8 601C600 601 557 601 514.2 601C471.3 601 428.7 601 385.8 601C343 601 300 601 257.2 601C214.3 601 171.7 601 128.8 601C86 601 43 601 21.5 601L0 601Z" fill="#d53867"></path><path d="M0 538L21.5 542.2C43 546.3 86 554.7 128.8 560.3C171.7 566 214.3 569 257.2 567.3C300 565.7 343 559.3 385.8 558C428.7 556.7 471.3 560.3 514.2 557.7C557 555 600 546 642.8 547.7C685.7 549.3 728.3 561.7 771.2 564.7C814 567.7 857 561.3 878.5 558.2L900 555L900 601L878.5 601C857 601 814 601 771.2 601C728.3 601 685.7 601 642.8 601C600 601 557 601 514.2 601C471.3 601 428.7 601 385.8 601C343 601 300 601 257.2 601C214.3 601 171.7 601 128.8 601C86 601 43 601 21.5 601L0 601Z" fill="#c62368"></path></svg>