<svg id="visual" viewBox="0 0 960 540" width="960" height="540" xmlns="http://www.w3.org/2000/svg" xmlns:xlink="http://www.w3.org/1999/xlink" version="1.1"><rect x="0" y="0" width="960" height="540" fill="#001220"></rect><path d="M0 401L22.8 405.8C45.7 410.7 91.3 420.3 137 424.7C182.7 429 228.3 428 274 416.5C319.7 405 365.3 383 411.2 384.2C457 385.3 503 409.7 548.8 417C594.7 424.3 640.3 414.7 686 402.5C731.7 390.3 777.3 375.7 823 368.2C868.7 360.7 914.3 360.3 937.2 360.2L960 360L960 541L937.2 541C914.3 541 868.7 541 823 541C777.3 541 731.7 541 686 541C640.3 541 594.7 541 548.8 541C503 541 457 541 411.2 541C365.3 541 319.7 541 274 541C228.3 541 182.7 541 137 541C91.3 541 45.7 541 22.8 541L0 541Z" fill="#fa7268"></path><path d="M0 430L22.8 429.2C45.7 428.3 91.3 426.7 137 430.7C182.7 434.7 228.3 444.3 274 448.7C319.7 453 365.3 452 411.2 443.5C457 435 503 419 548.8 409.7C594.7 400.3 640.3 397.7 686 405.5C731.7 413.3 777.3 431.7 823 435.7C868.7 439.7 914.3 429.3 937.2 424.2L960 419L960 541L937.2 541C914.3 541 868.7 541 823 541C777.3 541 731.7 541 686 541C640.3 541 594.7 541 548.8 541C503 541 457 541 411.2 541C365.3 541 319.7 541 274 541C228.3 541 182.7 541 137 541C91.3 541 45.7 541 22.8 541L0 541Z" fill="#ef5f67"></path><path d="M0 442L22.8 445.8C45.7 449.7 91.3 457.3 137 454.8C182.7 452.3 228.3 439.7 274 439.8C319.7 440 365.3 453 411.2 455.5C457 458 503 450 548.8 445.8C594.7 441.7 640.3 441.3 686 445C731.7 448.7 777.3 456.3 823 453.8C868.7 451.3 914.3 438.7 937.2 432.3L960 426L960 541L937.2 541C914.3 541 868.7 541 823 541C777.3 541 731.7 541 686 541C640.3 541 594.7 541 548.8 541C503 541 457 541 411.2 541C365.3 541 319.7 541 274 541C228.3 541 182.7 541 137 541C91.3 541 45.7 541 22.8 541L0 541Z" fill="#e34c67"></path><path d="M0 461L22.8 467.2C45.7 473.3 91.3 485.7 137 487.5C182.7 489.3 228.3 480.7 274 476.5C319.7 472.3 365.3 472.7 411.2 468.8C457 465 503 457 548.8 457C594.7 457 640.3 465 686 466.7C731.7 468.3 777.3 463.7 823 460.8C868.7 458 914.3 457 937.2 456.5L960 456L960 541L937.2 541C914.3 541 868.7 541 823 541C777.3 541 731.7 541 686 541C640.3 541 594.7 541 548.8 541C503 541 457 541 411.2 541C365.3 541 319.7 541 274 541C228.3 541 182.7 541 137 541C91.3 541 45.7 541 22.8 541L0 541Z" fill="#d53867"></path><path d="M0 484L22.8 487.8C45.7 491.7 91.3 499.3 137 504.5C182.7 509.7 228.3 512.3 274 510.7C319.7 509 365.3 503 411.2 501.7C457 500.3 503 503.7 548.8 501.5C594.7 499.3 640.3 491.7 686 493.2C731.7 494.7 777.3 505.3 823 507.8C868.7 510.3 914.3 504.7 937.2 501.8L960 499L960 541L937.2 541C914.3 541 868.7 541 823 541C777.3 541 731.7 541 686 541C640.3 541 594.7 541 548.8 541C503 541 457 541 411.2 541C365.3 541 319.7 541 274 541C228.3 541 182.7 541 137 541C91.3 541 45.7 541 22.8 541L0 541Z" fill="#c62368"></path></svg>